<?xml version="1.0" encoding="UTF-8" standalone="no"?>
<!-- Created with Inkscape (http://www.inkscape.org/) -->

<svg
   xmlns:dc="http://purl.org/dc/elements/1.1/"
   xmlns:cc="http://creativecommons.org/ns#"
   xmlns:rdf="http://www.w3.org/1999/02/22-rdf-syntax-ns#"
   xmlns:svg="http://www.w3.org/2000/svg"
   xmlns="http://www.w3.org/2000/svg"
   xmlns:xlink="http://www.w3.org/1999/xlink"
   xmlns:sodipodi="http://sodipodi.sourceforge.net/DTD/sodipodi-0.dtd"
   xmlns:inkscape="http://www.inkscape.org/namespaces/inkscape"
   width="133.61458mm"
   height="52.122917mm"
   viewBox="0 0 133.61458 52.122917"
   version="1.1"
   id="svg8"
   inkscape:version="0.92.5 (2060ec1f9f, 2020-04-08)"
   sodipodi:docname="tacoma dome.svg">
  <defs
     id="defs2">
    <style
       id="style815">
      .logo-svg {
        fill: #d5201e;
      }

      .logo-svg, .logo-svg-2 {
        fill-rule: evenodd;
      }

      .logo-svg-2 {
        fill: #ff290b;
      }
    </style>
    <style
       id="style849">.bdec77e6-4ef1-4cd6-abcf-a3dd72cec723{fill:url(#a27e7661-e801-47d6-868e-a11c478ba4df);}.\34 96f8a8f-c181-4813-a8b9-e5c91fb58363{fill:url(#825b9f15-19f1-4149-9847-d68c22250cd7);}.\34 cc069a7-8020-4aac-94a0-df794355e5aa{fill:url(#2c368434-f0d1-4fa8-9b72-4fe71c036204);}.\38 23a35df-908c-4f55-9164-ea35d1ba9e90{fill:url(#dbbde7e6-c7c4-4011-adb5-c8149e17861c);}.\39 48ec23f-ff03-4640-9d8e-5588a2bbada0{fill:url(#f7848a44-1c43-4144-af8a-947bceb60d11);}.\32 ff97651-5307-41c5-8f3f-6d03d145d1f7{fill:url(#c27a59d7-d6e5-44e4-abf3-9bf1c91a1acb);}.\32 986aa2e-ddac-4838-9b4a-4be5e92f7b7b{mask:url(#cc9fc7da-6722-4bc9-a54b-fdb750b75112);}.f98122d2-d8f8-4055-b0bc-22d25bd3ebb2{fill:url(#e5b8c349-f513-4ac8-9e32-3dff41a98974);}.\34 1d95087-ff21-4967-91ef-64be73865900{mask:url(#b6dc1b86-6a9b-4fda-aec0-48a795d3ff49);}.b65da93b-25ff-4fe7-9580-953918f89a5d{fill:url(#25fb61d9-4f6b-46f5-a0e7-8cc3b296b286);}.d346589d-fc73-4965-84fa-dc0fa029cc05{mask:url(#2ad2da25-0a96-4c50-b541-45d5f95d878d);}.\32 dd9cb00-2d0f-4d54-8611-7b8ec0d8d5ff{fill:url(#0e1ece68-995a-46cc-b1f9-156d0350a614);}.\31 8e14248-7097-4e8d-9e04-545d6b1e59a2{mask:url(#f3d8b1cf-9029-4921-a8a3-e6ff7dcf8910);}.\30 0fbc381-ad25-4577-84aa-ad7a27fe437c{fill:url(#40ce4109-8f4c-45b1-9b77-73c33bf93fce);}.c2174e46-6684-419d-a6a0-1707af0f1a40{mask:url(#0bb68a66-37d9-4cfa-a08d-024df774b188);}.\35 376873f-72b4-4cc3-92f5-4d9b9ed72e1c{fill:url(#34edb43f-8fca-4ed0-bd5d-57b9d83c89ff);}.afbdb5c1-034f-45db-a98b-786732948c8c{mask:url(#3c1be127-3a38-4c88-9fc6-8f35272eabca);}.a6ce8c03-2332-4903-bcf6-1c813fa7bf67{fill:url(#ab02a6d9-4323-4806-9fa6-1672255ac00e);}.\33 aecf08d-3bc8-406d-89e2-805a3d4ec728{fill:url(#cff7ac36-6fd0-44fc-b74f-cc9d94652243);}.\30 33dc1bf-193d-49fd-94e4-cd33a1cd57d5{fill:#231f20;}.f392f9cc-aea5-4738-8d3a-f0e6cd97cc1a{fill:#cdb368;}</style>
    <linearGradient
       gradientUnits="userSpaceOnUse"
       gradientTransform="matrix(0,-31.95,-31.95,0,19292.67,-42566.94)"
       y2="600.20001"
       x2="-1332.63"
       y1="600.20001"
       x1="-1334.67"
       id="a27e7661-e801-47d6-868e-a11c478ba4df">
      <stop
         id="stop851"
         stop-color="#fff"
         offset="0" />
      <stop
         id="stop853"
         offset="0.83" />
      <stop
         id="stop855"
         offset="1" />
    </linearGradient>
    <linearGradient
       xlink:href="#a27e7661-e801-47d6-868e-a11c478ba4df"
       gradientTransform="matrix(0,-26.31,-26.31,0,15740.91,-34999.28)"
       y2="590.67999"
       x2="-1331.12"
       y1="590.67999"
       x1="-1333.16"
       id="825b9f15-19f1-4149-9847-d68c22250cd7" />
    <linearGradient
       xlink:href="#a27e7661-e801-47d6-868e-a11c478ba4df"
       gradientTransform="matrix(0,-26.31,-26.31,0,15790.23,-34999.28)"
       y2="593.03998"
       x2="-1330.95"
       y1="593.03998"
       x1="-1333.16"
       id="2c368434-f0d1-4fa8-9b72-4fe71c036204" />
    <linearGradient
       xlink:href="#a27e7661-e801-47d6-868e-a11c478ba4df"
       y2="598.5"
       x2="-1332.62"
       y1="598.5"
       x1="-1334.66"
       id="dbbde7e6-c7c4-4011-adb5-c8149e17861c" />
    <linearGradient
       xlink:href="#a27e7661-e801-47d6-868e-a11c478ba4df"
       gradientTransform="matrix(0,-26.31,26.31,0,-19091.52,-34999.28)"
       y2="728.96002"
       x2="-1331.11"
       y1="728.96002"
       x1="-1333.16"
       id="f7848a44-1c43-4144-af8a-947bceb60d11" />
    <linearGradient
       xlink:href="#a27e7661-e801-47d6-868e-a11c478ba4df"
       gradientTransform="matrix(0,-26.31,26.31,0,-19140.84,-34999.28)"
       y2="731.32001"
       x2="-1330.96"
       y1="731.32001"
       x1="-1333.16"
       id="c27a59d7-d6e5-44e4-abf3-9bf1c91a1acb" />
    <mask
       maskUnits="userSpaceOnUse"
       height="65.26"
       width="15.43"
       y="9.61"
       x="109.03"
       id="cc9fc7da-6722-4bc9-a54b-fdb750b75112">
      <rect
         id="rect863"
         height="65.230003"
         width="15.43"
         y="9.6099997"
         x="109.03"
         class="bdec77e6-4ef1-4cd6-abcf-a3dd72cec723"
         style="fill:url(#a27e7661-e801-47d6-868e-a11c478ba4df)" />
    </mask>
    <linearGradient
       gradientUnits="userSpaceOnUse"
       y2="74.870003"
       x2="116.74"
       y1="9.6099997"
       x1="116.74"
       id="e5b8c349-f513-4ac8-9e32-3dff41a98974">
      <stop
         id="stop866"
         stop-opacity="0"
         stop-color="#cdb368"
         offset="0.12" />
      <stop
         id="stop868"
         stop-opacity="0.21"
         stop-color="#cdb368"
         offset="0.17" />
      <stop
         id="stop870"
         stop-opacity="0.55"
         stop-color="#cdb368"
         offset="0.26" />
      <stop
         id="stop872"
         stop-opacity="0.79"
         stop-color="#cdb368"
         offset="0.34" />
      <stop
         id="stop874"
         stop-opacity="0.94"
         stop-color="#cdb368"
         offset="0.39" />
      <stop
         id="stop876"
         stop-color="#cdb368"
         offset="0.42" />
    </linearGradient>
    <mask
       maskUnits="userSpaceOnUse"
       height="53.72"
       width="7.12"
       y="21.15"
       x="197.14"
       id="b6dc1b86-6a9b-4fda-aec0-48a795d3ff49">
      <rect
         id="rect879"
         height="53.720001"
         width="7.1199999"
         y="21.15"
         x="197.14"
         class="496f8a8f-c181-4813-a8b9-e5c91fb58363"
         style="fill:url(#825b9f15-19f1-4149-9847-d68c22250cd7)" />
    </mask>
    <linearGradient
       xlink:href="#e5b8c349-f513-4ac8-9e32-3dff41a98974"
       y2="74.870003"
       x2="200.7"
       y1="21.15"
       x1="200.7"
       id="25fb61d9-4f6b-46f5-a0e7-8cc3b296b286" />
    <mask
       maskUnits="userSpaceOnUse"
       height="58.23"
       width="10.64"
       y="16.64"
       x="182.61"
       id="2ad2da25-0a96-4c50-b541-45d5f95d878d">
      <rect
         id="rect883"
         height="58.049999"
         width="10.64"
         y="16.639999"
         x="182.61"
         class="4cc069a7-8020-4aac-94a0-df794355e5aa"
         style="fill:url(#2c368434-f0d1-4fa8-9b72-4fe71c036204)" />
    </mask>
    <linearGradient
       xlink:href="#e5b8c349-f513-4ac8-9e32-3dff41a98974"
       y2="74.870003"
       x2="187.92999"
       y1="16.639999"
       x1="187.92999"
       id="0e1ece68-995a-46cc-b1f9-156d0350a614" />
    <mask
       maskUnits="userSpaceOnUse"
       height="65.57"
       width="15.43"
       y="9.3"
       x="163.17"
       id="f3d8b1cf-9029-4921-a8a3-e6ff7dcf8910">
      <rect
         id="rect887"
         height="65.230003"
         width="15.43"
         y="9.3000002"
         x="163.17"
         class="823a35df-908c-4f55-9164-ea35d1ba9e90"
         style="fill:url(#dbbde7e6-c7c4-4011-adb5-c8149e17861c)" />
    </mask>
    <linearGradient
       xlink:href="#e5b8c349-f513-4ac8-9e32-3dff41a98974"
       y2="74.870003"
       x2="170.88"
       y1="9.3000002"
       x1="170.88"
       id="40ce4109-8f4c-45b1-9b77-73c33bf93fce" />
    <mask
       maskUnits="userSpaceOnUse"
       height="53.9"
       width="7.12"
       y="20.97"
       x="83.15"
       id="0bb68a66-37d9-4cfa-a08d-024df774b188">
      <rect
         id="rect891"
         height="53.720001"
         width="7.1199999"
         y="20.969999"
         x="83.150002"
         class="948ec23f-ff03-4640-9d8e-5588a2bbada0"
         style="fill:url(#f7848a44-1c43-4144-af8a-947bceb60d11)" />
    </mask>
    <linearGradient
       xlink:href="#e5b8c349-f513-4ac8-9e32-3dff41a98974"
       y2="74.870003"
       x2="86.709999"
       y1="20.969999"
       x1="86.709999"
       id="34edb43f-8fca-4ed0-bd5d-57b9d83c89ff" />
    <mask
       maskUnits="userSpaceOnUse"
       height="58.43"
       width="10.64"
       y="16.8"
       x="94.15"
       id="3c1be127-3a38-4c88-9fc6-8f35272eabca">
      <rect
         id="rect895"
         height="58.049999"
         width="10.64"
         y="16.799999"
         x="94.150002"
         class="2ff97651-5307-41c5-8f3f-6d03d145d1f7"
         style="fill:url(#c27a59d7-d6e5-44e4-abf3-9bf1c91a1acb)" />
    </mask>
    <linearGradient
       xlink:href="#e5b8c349-f513-4ac8-9e32-3dff41a98974"
       y2="75.230003"
       x2="99.470001"
       y1="16.799999"
       x1="99.470001"
       id="ab02a6d9-4323-4806-9fa6-1672255ac00e" />
    <linearGradient
       gradientUnits="userSpaceOnUse"
       y2="74.870003"
       x2="143.81"
       x1="143.81"
       id="cff7ac36-6fd0-44fc-b74f-cc9d94652243">
      <stop
         id="stop899"
         stop-opacity="0"
         stop-color="#cdb368"
         offset="0.19" />
      <stop
         id="stop901"
         stop-opacity="0.11"
         stop-color="#cdb368"
         offset="0.25" />
      <stop
         id="stop903"
         stop-opacity="0.45"
         stop-color="#cdb368"
         offset="0.42" />
      <stop
         id="stop905"
         stop-opacity="0.69"
         stop-color="#cdb368"
         offset="0.57" />
      <stop
         id="stop907"
         stop-opacity="0.84"
         stop-color="#cdb368"
         offset="0.69" />
      <stop
         id="stop909"
         stop-opacity="0.9"
         stop-color="#cdb368"
         offset="0.75" />
    </linearGradient>
  </defs>
  <sodipodi:namedview
     id="base"
     pagecolor="#ffffff"
     bordercolor="#666666"
     borderopacity="1.0"
     inkscape:pageopacity="0.0"
     inkscape:pageshadow="2"
     inkscape:zoom="1.1894531"
     inkscape:cx="168.27331"
     inkscape:cy="34.25652"
     inkscape:document-units="mm"
     inkscape:current-layer="layer1"
     showgrid="false"
     fit-margin-top="0"
     fit-margin-left="0"
     fit-margin-right="0"
     fit-margin-bottom="0"
     inkscape:window-width="1920"
     inkscape:window-height="1017"
     inkscape:window-x="1912"
     inkscape:window-y="70"
     inkscape:window-maximized="1" />
  <metadata
     id="metadata5">
    <rdf:RDF>
      <cc:Work
         rdf:about="">
        <dc:format>image/svg+xml</dc:format>
        <dc:type
           rdf:resource="http://purl.org/dc/dcmitype/StillImage" />
        <dc:title></dc:title>
      </cc:Work>
    </rdf:RDF>
  </metadata>
  <g
     inkscape:label="Layer 1"
     inkscape:groupmode="layer"
     id="layer1"
     transform="translate(-70.173441,-86.84379)">
    <g
       id="g1036"
       transform="matrix(0.6348466,0,0,0.62856233,70.173441,86.83777)"
       style="fill:none;fill-rule:evenodd">
      <path
         id="path1032"
         d="m 106.63155,15.4048 c 0.13312,-2.656 0.26624,-5.312 0.53249,-7.9016 0.13312,-1.9256 0.46593,-3.8512 0.66561,-5.7768 0,-0.1992 -0.13312,-0.4648 -0.0666,-0.664 0.0666,-0.332 0.0666,-0.996 0.19969,-0.996 0.39936,-0.1328 0.93186,0 1.39779,0.0664 0,0.332 0.0666,0.8632 -0.13312,1.0624 -0.46594,0.332 -0.46594,0.7304 -0.5325,1.2616 -0.26624,3.32 -0.53249,6.64 -0.79874,9.96 -0.0666,0.8632 -0.13312,1.66 -0.19968,2.5232 -0.0666,0.4648 0.13312,0.5976 0.53249,0.5976 2.86215,0.0664 5.72429,0.1328 8.58644,0.332 2.86214,0.1992 5.65773,0.3984 8.51987,0.7304 2.99527,0.332 5.92398,0.664 8.91924,1.1952 12.9795,2.1248 25.55963,5.5112 37.20789,11.7528 1.53091,0.8632 3.06183,1.7928 4.45962,2.7888 -2.52934,-0.7304 -4.99211,-1.66 -7.58801,-2.2576 -5.65773,-1.328 -11.2489,-2.656 -16.97319,-3.7184 -4.12681,-0.7968 -8.38675,-1.328 -12.58012,-1.8592 -3.12839,-0.3984 -6.32335,-0.664 -9.5183,-0.8632 -4.45962,-0.2656 -8.9858,-0.4648 -13.44542,-0.5312 -4.72587,0 -9.45174,0.1328 -14.17761,0.332 -3.527758,0.1328 -7.055518,0.4648 -10.583279,0.8632 -3.99369,0.4648 -7.987381,1.0624 -11.981072,1.7264 -5.990536,0.9296 -11.84795,2.2576 -17.638801,3.7848 -10.849527,2.8552 -21.166562,7.1048 -31.084228,12.284 -0.266246,0.1328 -0.532492,0.2656 -0.865299,0.4648 -0.06656,0 -0.133123,0 -0.266246,0.0664 0,-1.1952 0,-2.3904 0,-3.5856 -0.332808,-0.0664 -0.532492,-0.1328 -0.8653,-0.2656 23.962145,-15.3384 49.65489,-23.904 78.276345,-23.3728 z m 41.86719,51.8584 c -2.92871,0 -5.65773,0 -8.653,0 0.26625,-0.1992 0.39937,-0.3984 0.53249,-0.3984 0.73218,-0.1328 0.93186,-0.5976 0.93186,-1.328 0,-7.1048 0,-14.2096 0,-21.3144 0,-0.664 -0.19968,-0.996 -0.79873,-1.328 -0.19969,-0.1328 -0.39937,-0.3984 -0.5325,-0.5976 0.0666,-0.0664 0.13313,-0.1328 0.13313,-0.1328 4.12681,0 8.25362,0 12.38044,0 0.0666,0.4648 0.0666,0.4648 -1.19811,1.2616 1.53092,3.3864 3.06183,6.7728 4.72587,10.3584 0.79874,-1.7264 1.59748,-3.32 2.32965,-4.8472 0.73218,-1.5936 1.46436,-3.2536 2.32965,-4.8472 0.39937,-0.7304 0.26625,-1.1288 -0.53249,-1.328 -0.19968,-0.0664 -0.3328,-0.1992 -0.53249,-0.2656 0,-0.0664 0.0666,-0.1328 0.0666,-0.1992 4.3265,0 8.58644,0 13.17918,0 -0.26624,0.332 -0.39937,0.5976 -0.66561,0.7304 -0.5325,0.2656 -0.66562,0.664 -0.66562,1.1952 0,7.1048 0,14.2096 0,21.3144 0,0.7304 0.0666,1.328 0.93186,1.4608 0.0666,0 0.0666,0.1328 0.13313,0.2656 -3.06183,0 -6.0571,0 -9.18549,0 0.19968,-0.1992 0.26624,-0.3984 0.39937,-0.4648 0.66561,-0.332 0.93186,-0.8632 0.93186,-1.66 -0.0666,-5.312 0,-10.5576 0,-15.8696 0,-0.2656 0,-0.5976 0,-0.8632 -0.0666,0 -0.13313,-0.0664 -0.19969,-0.0664 -0.13312,0.1992 -0.19968,0.3984 -0.3328,0.5976 -2.66247,5.7104 -5.25836,11.4872 -7.92083,17.1976 -0.13312,0.2656 -0.3328,0.4648 -0.53249,0.664 -0.13312,-0.1992 -0.3328,-0.4648 -0.46593,-0.7304 -2.52934,-5.7104 -5.05867,-11.3544 -7.65457,-17.0648 -0.13313,-0.1992 -0.19969,-0.4648 -0.53249,-0.664 0,0.2656 0,0.5312 0,0.7968 0,5.4448 0,10.8896 0,16.3344 0,0.7968 0.0666,1.3944 1.06498,1.328 -0.0666,0.0664 0.0666,0.1992 0.33281,0.4648 z M 91.988013,59.1624 c -0.133123,-1.1952 -0.133123,-1.1952 0.599053,-1.4608 1.464354,2.324 2.995268,4.5816 4.39306,6.972 0.133123,0.1992 0,0.5312 -0.06656,0.8632 -0.732177,-0.7304 -1.397792,-0.4648 -2.129969,-0.2656 -3.128391,0.7968 -6.256782,1.8592 -9.451735,2.2576 C 80.605994,68.06 76.212934,66.7984 72.352366,63.9432 69.823028,62.084 68.092429,59.6272 67.69306,56.44 c -0.532492,-4.5152 0.998423,-8.2336 4.725867,-10.956 3.261515,-2.3904 6.855836,-3.5856 10.849527,-3.7184 3.660884,-0.1992 7.188644,0.5312 10.716404,1.7264 0.532492,0.1992 1.198107,0.0664 1.730599,0.0664 0.199685,0 0.532493,0 0.665616,0.1328 0.06656,0.0664 0.06656,0.4648 -0.06656,0.5976 -1.264669,2.1248 -2.529338,4.2496 -3.794006,6.3744 -0.133123,0.1992 -0.399369,0.2656 -0.599054,0.3984 -0.06656,-0.1992 -0.199684,-0.3984 -0.199684,-0.5976 0.06656,-0.3984 0,-0.5976 -0.39937,-0.7968 -2.862145,-1.2616 -5.72429,-2.1248 -8.852681,-1.7264 -2.795584,0.332 -5.058675,1.66 -6.58959,4.0504 -1.397792,2.1912 -0.931861,4.9136 1.064984,6.7064 3.328076,2.9216 7.188644,3.4528 11.315458,2.0584 1.264669,-0.4648 2.462776,-1.0624 3.727445,-1.5936 z M 0,49.0696 c 0,-2.7224 0,-5.4448 0,-8.1672 0.99842271,-0.2656 0.66561514,0.664 1.0649842,1.0624 0.1996846,0 0.4659306,0 0.7321767,0 7.8542587,0 15.6419561,0 23.4962141,0 0.465931,0 0.8653,0 0.998423,-0.5976 0.06656,-0.1992 0.399369,-0.332 0.732177,-0.5312 0,2.8552 0,5.5776 0,8.2336 -0.06656,0.0664 -0.133123,0.0664 -0.199685,0.1328 C 26.624606,49.0032 26.491483,48.804 26.291798,48.6048 26.158675,48.4056 25.95899,48.14 25.825867,48.14 c -2.729022,0 -5.524605,0 -8.38675,0 0,0.332 -0.06656,0.664 -0.06656,0.9296 0,5.5112 0,11.0224 0,16.5336 0,0.5976 0,1.0624 0.732177,1.1288 0.133123,0 0.266246,0.2656 0.532492,0.5312 -3.394637,0 -6.58959,0 -9.7845426,0 0,-0.0664 -0.066562,-0.1328 -0.066562,-0.1992 0.1996845,-0.1328 0.3993691,-0.332 0.5990536,-0.3984 0.3993691,-0.1992 0.5990536,-0.3984 0.5990536,-0.9296 0,-5.7104 0,-11.4208 0,-17.1312 0,-0.1328 0,-0.2656 0,-0.4648 -0.133123,0 -0.266246,-0.0664 -0.3993691,-0.0664 -2.6624605,0 -5.3914826,0 -8.0539432,0 -0.3993691,0 -0.66561512,0.0664 -0.66561512,0.5312 C 0.79873817,49.2024 0.39936909,49.136 0,49.0696 Z m 131.7918,23.4392 c 0,3.4528 0,6.7728 0,10.1592 -0.46593,0 -0.8653,0 -1.39779,0 0,-2.8552 0,-5.7104 0,-8.5656 -0.0666,0 -0.13313,-0.0664 -0.19969,-0.0664 -2.12997,2.3904 -4.25993,4.7808 -6.45647,7.1712 -2.0634,-2.3904 -4.06025,-4.7808 -6.25678,-7.3704 0,3.0544 0,5.9096 0,8.8312 -0.59905,0 -1.06498,0 -1.59747,0 0,-3.3864 0,-6.7064 0,-10.0928 1.26466,-0.1992 2.26309,-0.1328 3.19495,1.0624 1.46435,1.9256 3.12839,3.7184 4.72587,5.5776 0.8653,-0.996 1.7306,-1.992 2.5959,-2.988 0.79873,-0.9296 1.59747,-1.8592 2.39621,-2.7888 0.53249,-0.664 1.13155,-1.1288 2.06341,-0.9296 0.26624,0.0664 0.59905,0 0.93186,0 z"
         inkscape:connector-curvature="0"
         style="fill:#000000;fill-rule:nonzero" />
      <path
         id="path1034"
         d="m 120.07697,2.5896 c -0.53249,1.5272 -1.06498,2.9216 -1.66404,4.316 -0.0666,0.1992 -0.3328,0.332 -0.53249,0.3984 -1.59747,0.3984 -3.26151,0.7304 -4.85899,1.1288 -0.19968,0.0664 -0.39937,0 -0.66561,0.0664 -1.53092,0 -1.7306,-0.332 -1.06499,-1.7264 0.19969,-0.3984 0.26625,-0.7304 0.46593,-1.2616 -1.19811,-0.2656 -1.99684,0.3984 -2.9287,0.7968 0.13312,-1.328 0.19968,-2.5896 0.3328,-3.8512 0,-0.1992 0.33281,-0.4648 0.59906,-0.5976 1.33123,-0.664 2.79558,-0.7968 4.25993,-0.664 0.19969,0 0.59906,0.3984 0.59906,0.664 0,1.2616 0.79874,1.8592 1.99684,1.5272 0.99843,-0.2656 1.99685,-0.5312 2.99527,-0.7304 0.13312,-0.0664 0.26625,-0.0664 0.46593,-0.0664 z m -31.949525,80.344 c -2.529338,-0.0664 -4.792429,-0.5976 -6.789275,-1.992 -1.131545,-0.7968 -2.063407,-1.7928 -2.063407,-3.3864 0,-1.66 0.998423,-2.7224 2.263092,-3.5192 2.263091,-1.4608 4.725867,-1.8592 7.388328,-1.7264 1.863722,0.0664 3.660883,0.4648 5.324921,1.3944 1.530915,0.8632 2.662461,2.0584 2.595899,3.984 0,1.4608 -0.798738,2.5232 -1.863722,3.32 -2.129969,1.3944 -4.459622,1.8592 -6.855836,1.9256 z m -0.133123,-0.996 c 2.129968,0 4.126814,-0.3984 5.857413,-1.7264 1.930284,-1.4608 1.996845,-3.652 0.133123,-5.1792 -1.33123,-1.1288 -2.995268,-1.5272 -4.659306,-1.7264 -2.595899,-0.2656 -4.992114,0.1328 -7.05552,1.8592 -1.863723,1.5272 -1.797161,3.5856 0.133123,5.0464 1.597476,1.328 3.52776,1.7264 5.591167,1.7264 z m -41.068454,0.7968 c 0,-3.4528 0,-6.7728 0,-10.2256 1.064984,0 2.063406,0 3.061829,0 1.996846,0 3.927129,-0.0664 5.923975,0.0664 2.462776,0.1992 4.326498,1.328 5.391483,3.652 0.798738,1.8592 0.199684,3.652 -1.664038,5.0464 -1.131546,0.8632 -2.462776,1.3944 -3.860568,1.4608 -2.995268,0.0664 -5.923975,0 -8.852681,0 z m 1.530914,-9.0968 c 0,2.7224 0,5.4448 0,8.1672 2.462776,0 4.858991,0.1328 7.188644,-0.0664 1.530915,-0.0664 2.729022,-0.996 3.594322,-2.1912 0.732176,-0.996 0.931861,-2.0584 0.332807,-3.1872 -0.798738,-1.5272 -2.129968,-2.5232 -3.860568,-2.656 -2.329653,-0.1992 -4.792429,-0.0664 -7.255205,-0.0664 z M 152.75867,82.668 c 0,-3.3864 0,-6.7064 0,-10.0928 4.25994,0 8.51988,0 12.77982,0 0,0.2656 0,0.5312 0,0.8632 -3.72745,0 -7.45489,0 -11.2489,0 0,1.1952 0,2.3904 0,3.5856 1.99684,0 3.92713,0 5.92397,0 0,0.332 0,0.5976 0,0.9296 -1.99684,0 -3.92713,0 -5.92397,0 0,1.2616 0,2.5232 0,3.8512 3.92713,0 7.7877,0 11.71483,0 0,0.332 0,0.5976 0.0666,0.9296 C 161.61136,82.668 157.2183,82.668 152.75867,82.668 Z M 0.33280757,62.1504 c 2.52933753,-2.5232 4.92555203,-4.9136 7.32176653,-7.304 0.066562,0.8632 0.066562,1.4608 -0.7987381,2.1248 -2.1299685,1.5272 -4.0602524,3.2536 -6.12365934,4.8472 0,0.0664 -0.13312303,0.1328 -0.39936909,0.332 z M 132.85678,52.0576 c -0.66561,-3.2536 -2.66246,-5.7104 -5.32492,-7.5032 -4.19337,-2.8552 -8.85268,-3.4528 -13.71167,-2.3904 -5.12524,1.1288 -10.58328,5.3784 -10.98265,11.4872 -0.19968,3.1208 0.53249,5.976 2.5959,8.4328 5.12523,6.1088 14.57697,6.972 20.83375,3.3864 4.19338,-2.3904 6.78928,-5.8432 6.85584,-11.288 0,-0.4648 -0.0666,-1.2616 -0.26625,-2.1248 z m -12.91293,9.96 c -2.79559,0.5312 -5.32492,-0.0664 -7.58801,-1.7928 -2.72903,-2.1248 -3.26152,-5.976 -1.26467,-9.0304 1.53091,-2.3904 3.72744,-3.652 6.58959,-3.5856 3.12839,0.1328 5.79085,1.1952 7.38833,4.0504 2.32965,3.9176 -0.5325,9.4952 -5.12524,10.3584 z m 80.87224,4.7808 c -0.0666,0 -0.13313,0.1992 -0.26625,0.3984 3.32808,0 6.52303,0 9.91767,0 -0.19969,-0.2656 -0.26625,-0.4648 -0.39937,-0.4648 -0.53249,-0.1328 -0.73218,-0.5976 -0.93186,-1.0624 -2.26309,-5.5112 -4.52619,-11.0224 -6.78928,-16.4672 -0.79874,-1.992 -1.59747,-3.9176 -2.39621,-5.9096 0.33281,-0.3984 1.26467,-0.2656 0.93186,-1.1952 -4.25994,0 -8.51987,0 -12.77981,0 -0.19969,0.9296 0.73218,0.5312 1.06498,0.9296 -0.13312,0.332 -0.26624,0.7304 -0.39937,1.0624 -2.79558,7.0384 -5.59116,14.0104 -8.38675,21.0488 -0.26624,0.664 -0.26624,1.3944 -1.13154,1.7264 -0.0666,0 0,0.1992 -0.0666,0.332 2.86214,0 5.72429,0 8.51987,0 0.0666,-0.0664 0.0666,-0.1328 0.13312,-0.1992 -0.33281,-0.2656 -0.66561,-0.5312 -0.99842,-0.8632 0.46593,-1.2616 0.99842,-2.5896 1.53091,-3.8512 0.0666,-0.1992 0.46594,-0.332 0.66562,-0.332 3.39464,0 6.78927,0 10.25047,0 0.46593,0 0.73218,0.1992 0.8653,0.5976 0.33281,0.9296 0.66562,1.7928 1.06499,2.7224 0.26624,0.664 0.53249,1.2616 -0.39937,1.5272 z m -2.39622,-8.7648 c -2.9287,0 -5.79085,0 -8.78612,0 0.5325,-1.4608 1.06499,-2.8552 1.59748,-4.2496 0.73218,-1.9256 1.46435,-3.9176 2.19653,-5.8432 0.0666,-0.1992 0.26625,-0.3984 0.46593,-0.4648 0.0666,0 0.33281,0.1992 0.39937,0.3984 1.39779,3.32 2.72902,6.5736 4.12681,9.8936 0.0666,0 0,0.1328 0,0.2656 z M 52.716719,66.732 c -0.133123,0.0664 -0.199684,0.2656 -0.332807,0.4648 3.328075,0 6.456466,0 9.784542,0 C 62.035331,66.9976 61.96877,66.7984 61.835647,66.732 61.170031,66.5328 61.036909,66.0016 60.837224,65.5368 58.441009,59.6272 55.978233,53.7176 53.582019,47.808 52.982965,46.2808 52.31735,44.7536 51.718296,43.2264 c 0.39937,-0.332 1.198108,-0.2656 0.8653,-1.1288 -4.193375,0 -8.453312,0 -12.646688,0 -0.266246,0.9296 0.599054,0.5976 0.998423,0.9296 -0.133123,0.332 -0.266246,0.664 -0.332807,0.996 -0.998423,2.5896 -2.063407,5.1792 -3.06183,7.8352 -0.998423,2.5896 -1.996845,5.2456 -3.128391,7.7688 -1.064984,2.5232 -1.7306,5.2456 -3.328076,7.5696 2.795584,0 5.591167,0 8.453312,0 0.332808,-0.7968 -0.599053,-0.5976 -0.865299,-0.996 0.46593,-1.2616 0.998422,-2.5896 1.530915,-3.8512 0.06656,-0.1992 0.46593,-0.3984 0.732176,-0.3984 3.394637,0 6.789275,0 10.183912,0 0.465931,0 0.732177,0.1992 0.8653,0.5976 0.399369,0.996 0.732176,2.0584 1.198107,2.988 0.133123,0.5976 0.199684,0.996 -0.465931,1.1952 z M 41.467823,58.0336 c 0.332808,-0.996 0.732177,-1.8592 1.064985,-2.7888 0.865299,-2.3904 1.79716,-4.7808 2.729022,-7.1712 0.06656,-0.1992 0.332807,-0.3984 0.532492,-0.5976 0.133123,0.1992 0.399369,0.332 0.46593,0.5976 1.331231,3.1208 2.595899,6.308 3.92713,9.4288 0.06656,0.1328 0.133123,0.332 0.199684,0.5976 -3.061829,-0.0664 -5.923975,-0.0664 -8.919243,-0.0664 z"
         inkscape:connector-curvature="0"
         style="fill:#000000;fill-rule:nonzero" />
    </g>
  </g>
</svg>
